<svg width="208" height="55" viewBox="0 0 208 55" fill="none" xmlns="http://www.w3.org/2000/svg">
<path d="M196.956 22.2149C200.923 22.2149 203 20.427 203 18.0443C203 12.0001 194.981 13.9987 194.981 11.5694C194.981 10.9076 195.639 10.4359 196.564 10.4359C197.612 10.4359 198.352 10.889 198.641 11.8994L202.629 11.1145C201.93 8.58649 199.689 7.41382 196.544 7.41382C192.863 7.41382 190.786 9.22224 190.786 11.5694C190.786 17.4943 198.805 15.5647 198.805 17.966C198.805 18.723 198.126 19.1928 196.956 19.1928C195.785 19.1928 194.817 18.7435 194.366 17.5354L190.46 18.3128C191.139 21.0236 193.915 22.2149 196.957 22.2149M185.218 22.0098V11.2171H189.474V7.6189H176.85V11.2171H181.107V22.0098H185.218ZM167.743 10.8051H169.697C170.827 10.8051 171.546 11.4222 171.546 12.5109C171.546 13.5997 170.827 14.1963 169.697 14.1963H167.743V10.8032V10.8051ZM167.743 22.0098V17.2203H169.469L171.608 22.0098H176.172L173.293 16.5622C174.794 15.8015 175.657 14.4033 175.657 12.5128C175.657 9.36765 173.539 7.62076 170.107 7.62076H163.632V22.0117H167.743V22.0098ZM154.525 11.012H154.73L156.21 16.3571H153.045L154.525 11.012ZM162.09 22.0098L157.362 7.6189H151.997L147.269 22.0098H151.464L152.183 19.4407H157.075L157.795 22.0098H162.092H162.09ZM139.107 10.9076H140.895C142.088 10.9076 142.91 11.5042 142.91 12.6545C142.91 13.8048 142.088 14.4014 140.895 14.4014H139.107V10.9057V10.9076ZM139.107 22.0098V17.5894H141.245C144.884 17.5894 147.023 15.74 147.023 12.6564C147.023 9.57273 144.884 7.6189 141.245 7.6189H134.996V22.0098H139.107ZM125.887 11.012H126.092L127.572 16.3571H124.406L125.887 11.012ZM133.452 22.0098L128.724 7.6189H123.359L118.631 22.0098H122.825L123.545 19.4407H128.437L129.157 22.0098H133.454H133.452ZM109.503 10.8051H111.457C112.586 10.8051 113.306 11.4222 113.306 12.5109C113.306 13.5997 112.586 14.1963 111.457 14.1963H109.503V10.8032V10.8051ZM109.503 22.0098V17.2203H111.229L113.368 22.0098H117.931L115.053 16.5622C116.554 15.8015 117.417 14.4033 117.417 12.5128C117.417 9.36765 115.299 7.62076 111.867 7.62076H105.392V22.0117H109.503V22.0098ZM95.0914 16.0066H97.5784C98.5646 16.0066 99.2228 16.5622 99.2228 17.5074C99.2228 18.4526 98.5646 19.0082 97.5784 19.0082H95.0914V16.0066ZM95.0914 10.6205H97.1887C98.134 10.6205 98.7101 11.1351 98.7101 12.0188C98.7101 12.9025 98.134 13.417 97.1887 13.417H95.0914V10.6205ZM98.0109 22.0098C101.794 22.0098 103.336 20.5295 103.336 18.063C103.336 16.3161 102.37 15.2459 100.807 14.7538V14.5487C101.96 14.0341 102.72 13.0069 102.72 11.424C102.72 8.79344 100.828 7.62076 97.6828 7.62076H90.9805V22.0117H98.0109V22.0098ZM81.8731 11.012H82.0782L83.5585 16.3571H80.3928L81.8731 11.012ZM89.4368 22.0098L84.7088 7.6189H79.3432L74.6152 22.0098H78.81L79.5297 19.4407H84.4217L85.1413 22.0098H89.4387H89.4368Z" fill="white"/>
<path d="M65.4279 52.432L43.6505 4H27.7774L6 52.432H22.4025L35.6823 22.3377L48.6544 52.432H65.4279Z" fill="white"/>
<path d="M65.4283 52.432L43.6509 4H27.7778L48.6548 52.432H65.4283Z" fill="white"/>
<path d="M203 38.5291V37.1663H196.969V26.6048H195.436V38.5291H203ZM184.243 27.9322H184.328L186.629 34.5245H181.944L184.245 27.9322H184.243ZM189.66 38.5291L185.367 26.6048H183.255L178.978 38.5291H180.546L181.5 35.8035H187.071L188.025 38.5291H189.66ZM173.204 38.5291V26.6048H171.671V38.5291H173.204ZM160.597 38.6988C162.762 38.6988 164.619 37.6771 165.418 35.2237L163.97 34.696C163.306 36.5697 162.163 37.336 160.597 37.336C158.315 37.336 156.798 35.5462 156.798 32.5651C156.798 29.584 158.313 27.7942 160.597 27.7942C162.13 27.7942 163.256 28.594 163.886 30.4341L165.334 29.9065C164.568 27.4866 162.728 26.4314 160.599 26.4314C157.482 26.4314 155.267 28.9017 155.267 32.5651C155.267 36.2285 157.482 38.6988 160.599 38.6988H160.597ZM142.317 27.9658H145.315C146.814 27.9658 147.769 28.8178 147.769 30.2309C147.769 31.6441 146.814 32.4793 145.315 32.4793H142.317V27.9639V27.9658ZM142.317 38.5291V33.7769H145.265L147.735 38.5291H149.473L146.78 33.6054C148.348 33.1803 149.301 31.9872 149.301 30.2328C149.301 27.9508 147.769 26.6048 145.382 26.6048H140.783V38.5291H142.315H142.317ZM134.36 38.5291V37.1663H127.971V33.0778H133.678V31.715H127.971V27.9676H134.36V26.6048H126.439V38.5291H134.36ZM108.994 38.5291V28.3424H109.08L112.708 38.5291H114.395L118.023 28.3424H118.109V38.5291H119.641V26.6048H117.204L113.576 36.8084L109.948 26.6048H107.547V38.5291H108.996H108.994ZM95.8931 37.336C93.6112 37.336 92.0936 35.5462 92.0936 32.5651C92.0936 29.584 93.6093 27.7942 95.8931 27.7942C98.177 27.7942 99.6759 29.5821 99.6759 32.5651C99.6759 35.5481 98.177 37.336 95.8931 37.336ZM95.8931 38.6988C99.0103 38.6988 101.208 36.2453 101.208 32.5651C101.208 28.8849 99.0103 26.4314 95.8931 26.4314C92.7759 26.4314 90.5611 28.9017 90.5611 32.5651C90.5611 36.2285 92.7759 38.6988 95.8931 38.6988ZM79.9474 38.6988C82.11 38.6988 83.9688 37.6771 84.7686 35.2237L83.32 34.696C82.6563 36.5697 81.5134 37.336 79.9474 37.336C77.6654 37.336 76.1478 35.5462 76.1478 32.5651C76.1478 29.584 77.6635 27.7942 79.9474 27.7942C81.4799 27.7942 82.6059 28.594 83.2361 30.4341L84.6847 29.9065C83.9184 27.4866 82.0783 26.4314 79.9492 26.4314C76.832 26.4314 74.6172 28.9017 74.6172 32.5651C74.6172 36.2285 76.832 38.6988 79.9492 38.6988H79.9474Z" fill="white"/>
<path d="M201.337 48.4138V43.9245H203V43.5423H199.256V43.9245H200.919V48.4138H201.337ZM198.449 48.4138V43.5423H198.031V48.4138H198.449ZM195.212 48.4828C195.936 48.4828 196.702 48.1137 197.084 47.1256L196.695 46.9727C196.394 47.7949 195.852 48.1006 195.212 48.1006C194.217 48.1006 193.529 47.2933 193.529 45.9771C193.529 44.6609 194.219 43.8536 195.212 43.8536C195.859 43.8536 196.374 44.1873 196.661 44.9816L197.051 44.8287C196.696 43.8536 195.943 43.4714 195.212 43.4714C193.947 43.4714 193.111 44.5024 193.111 45.9771C193.111 47.4518 193.947 48.4828 195.212 48.4828ZM190.52 43.9096H190.548L191.627 46.8459H189.448L190.52 43.9096ZM192.643 48.4138L190.833 43.5423H190.248L188.445 48.4138H188.876L189.306 47.23H191.763L192.196 48.4138H192.642H192.643ZM184.938 43.9245H186.351C186.978 43.9245 187.408 44.3141 187.408 44.9816C187.408 45.649 186.976 46.0125 186.351 46.0125H184.938V43.9245ZM184.938 48.4138V46.3891H186.379L187.423 48.4138H187.897L186.797 46.3463C187.416 46.2008 187.828 45.7348 187.828 44.989C187.828 44.0773 187.229 43.5423 186.374 43.5423H184.522V48.4138H184.94H184.938ZM180.471 46.13H181.996C182.692 46.13 183.117 46.4712 183.117 47.0827C183.117 47.6942 182.692 48.0298 181.996 48.0298H180.471V46.13ZM180.471 43.9245H181.869C182.559 43.9245 182.926 44.2451 182.926 44.8361C182.926 45.4271 182.557 45.7478 181.869 45.7478H180.471V43.9245ZM181.994 48.4138C182.975 48.4138 183.532 47.9328 183.532 47.12C183.532 46.501 183.212 46.0964 182.669 45.9231V45.9025C183.051 45.7497 183.324 45.401 183.324 44.81C183.324 43.9263 182.697 43.5441 181.841 43.5441H180.053V48.4157H181.996L181.994 48.4138ZM177.179 43.9096H177.207L178.286 46.8459H176.107L177.179 43.9096ZM179.302 48.4138L177.492 43.5423H176.906L175.104 48.4138H175.534L175.965 47.23H178.422L178.855 48.4138H179.3H179.302ZM170.066 48.1062C169.537 48.1062 169.19 47.806 169.19 47.3269C169.19 46.8049 169.572 46.4432 170.012 46.0946L171.244 47.5208C170.911 47.8825 170.549 48.1062 170.068 48.1062H170.066ZM169.593 44.5229C169.593 44.1128 169.87 43.848 170.247 43.848C170.581 43.848 170.873 44.0773 170.873 44.4745C170.873 44.9275 170.504 45.2463 170.079 45.567C169.787 45.2127 169.593 44.8921 169.593 44.5229ZM172.48 48.0298C172.236 48.0298 172.104 47.9179 171.979 47.7725L171.742 47.5003C171.854 47.3474 171.972 47.1871 172.083 47.0137L172.59 46.2419L172.27 46.033L171.776 46.7918C171.679 46.9373 171.587 47.0771 171.491 47.2095L170.322 45.8522C170.808 45.4756 171.274 45.0729 171.274 44.4745C171.274 43.876 170.849 43.4714 170.245 43.4714C169.641 43.4714 169.188 43.8965 169.188 44.5229C169.188 44.948 169.397 45.3507 169.766 45.8112C169.257 46.1934 168.77 46.6334 168.77 47.3288C168.77 48.0242 169.292 48.4847 170.051 48.4847C170.642 48.4847 171.088 48.2274 171.485 47.8023L171.673 48.0242C171.91 48.2964 172.111 48.4138 172.473 48.4138H172.758V48.0316H172.48V48.0298ZM163.272 43.9245H164.505C165.284 43.9245 165.745 44.3216 165.745 45.0095C165.745 45.6975 165.286 46.0815 164.505 46.0815H163.272V43.9245ZM163.272 48.4138V46.4656H164.525C165.521 46.4656 166.16 45.9231 166.16 45.0114C166.16 44.0997 165.521 43.5423 164.525 43.5423H162.855V48.4138H163.272ZM159.786 48.1006C158.798 48.1006 158.103 47.2933 158.103 45.9771C158.103 44.6609 158.798 43.8536 159.786 43.8536C160.774 43.8536 161.457 44.6609 161.457 45.9771C161.457 47.2933 160.767 48.1006 159.786 48.1006ZM159.786 48.4828C161.046 48.4828 161.874 47.4593 161.874 45.9771C161.874 44.495 161.046 43.4714 159.786 43.4714C158.526 43.4714 157.685 44.5024 157.685 45.9771C157.685 47.4518 158.528 48.4828 159.786 48.4828ZM155.101 48.4828C155.824 48.4828 156.591 48.1137 156.973 47.1256L156.583 46.9727C156.283 47.7949 155.741 48.1006 155.101 48.1006C154.105 48.1006 153.418 47.2933 153.418 45.9771C153.418 44.6609 154.107 43.8536 155.101 43.8536C155.748 43.8536 156.263 44.1873 156.548 44.9816L156.937 44.8287C156.583 43.8536 155.83 43.4714 155.099 43.4714C153.831 43.4714 152.998 44.5024 152.998 45.9771C152.998 47.4518 153.833 48.4828 155.099 48.4828H155.101ZM150.41 43.9096H150.438L151.518 46.8459H149.338L150.41 43.9096ZM152.534 48.4138L150.724 43.5423H150.138L148.335 48.4138H148.766L149.197 47.23H151.654L152.086 48.4138H152.532H152.534ZM144.828 43.9245H146.242C146.868 43.9245 147.299 44.3141 147.299 44.9816C147.299 45.649 146.866 46.0125 146.242 46.0125H144.828V43.9245ZM144.828 48.4138V46.3891H146.27L147.314 48.4138H147.787L146.687 46.3463C147.306 46.2008 147.718 45.7348 147.718 44.989C147.718 44.0773 147.12 43.5423 146.264 43.5423H144.413V48.4138H144.83H144.828ZM140.36 46.13H141.885C142.58 46.13 143.005 46.4712 143.005 47.0827C143.005 47.6942 142.58 48.0298 141.885 48.0298H140.36V46.13ZM140.36 43.9245H141.758C142.448 43.9245 142.815 44.2451 142.815 44.8361C142.815 45.4271 142.446 45.7478 141.758 45.7478H140.36V43.9245ZM141.885 48.4138C142.865 48.4138 143.423 47.9328 143.423 47.12C143.423 46.501 143.102 46.0964 142.56 45.9231V45.9025C142.942 45.7497 143.214 45.401 143.214 44.81C143.214 43.9263 142.588 43.5441 141.732 43.5441H139.944V48.4157H141.887L141.885 48.4138ZM137.067 43.9096H137.095L138.175 46.8459H135.995L137.067 43.9096ZM139.191 48.4138L137.38 43.5423H136.795L134.992 48.4138H135.423L135.854 47.23H138.311L138.743 48.4138H139.189H139.191Z" fill="white"/>
<path d="M133.452 45.189H74.6152V45.9776H133.452V45.189Z" fill="white"/>
<path d="M133.452 45.978H74.6152V46.7666H133.452V45.978Z" fill="white"/>
</svg>
