<svg width="280" height="55" viewBox="0 0 280 55" fill="none" xmlns="http://www.w3.org/2000/svg">
<g clip-path="url(#clip0_1437_588)">
<path d="M30.8716 6.39258C31.3543 6.39225 31.4671 6.51341 31.7253 6.9091C32.7048 8.41009 33.6771 9.90641 34.7235 11.3636C35.0848 11.8667 35.4369 12.3056 35.6738 12.8824C35.3216 13.9459 34.3225 15.0949 33.6738 16.1061C31.7024 19.1792 29.7902 22.2204 27.9682 25.386C27.6665 25.8479 27.4545 26.492 27.1534 26.9373C26.0676 28.5429 25.2692 30.2791 24.3217 31.9524C22.4501 35.2577 20.6565 38.632 19.0621 42.08C18.5863 43.109 17.937 44.1085 17.445 45.1346C16.6901 46.7989 16.0347 48.6989 15.0594 50.2473C14.5431 50.0605 14.0897 49.8618 13.5428 49.6755C12.494 49.3528 11.5317 49.0202 10.5039 48.6369C9.79107 48.3711 9.03808 48.1917 8.3335 47.8779C8.66618 47.2536 9.08993 46.1158 9.41671 45.4046C9.9032 44.1475 10.6763 42.9182 11.1681 41.6797C11.8484 39.7736 12.8905 38.0791 13.737 36.2655C14.4301 34.7805 15.0843 33.3923 15.9106 31.9622C16.5121 30.9 16.9757 29.6874 17.5803 28.6397C18.9472 26.2709 20.166 23.8253 21.6578 21.5318C21.9531 21.0777 22.1178 20.3969 22.4141 19.9294C23.0807 18.8775 23.7599 17.8325 24.4254 16.78C24.6948 16.347 24.9309 15.796 25.2088 15.3352C26.6658 12.9617 28.1746 10.6204 29.7341 8.31295C30.1837 7.63469 30.3797 7.0166 30.8716 6.39258Z" fill="white"/>
<path d="M35.2561 34.6403C41.1027 34.6161 45.9601 35.2634 51.3927 37.5339C57.3244 40.0129 60.7977 42.8147 64.7824 47.8069C64.503 47.9466 63.4745 48.327 63.0739 48.4567C61.7524 48.8841 59.5825 49.7963 58.2629 49.922C57.7638 49.9695 56.4915 48.2283 55.9737 47.8548C54.4486 46.7555 52.8517 45.4339 51.1769 44.5539C50.508 44.2027 49.497 43.8191 48.7613 43.475C47.4113 42.8772 45.4241 42.1248 43.9736 41.8242C38.4745 40.6958 32.2828 40.7274 26.9252 42.5054C24.6645 43.2556 22.1109 44.4833 20.0995 45.7447C19.5003 46.1204 19.0312 46.6745 18.3581 46.9706L18.3301 46.9827C19.2849 45.8674 19.7116 44.3109 20.3525 43.0011C20.8141 42.0578 21.3667 41.1618 21.8042 40.207C22.2112 39.3186 22.8229 37.7899 23.4669 37.0892C24.4884 35.9775 31.4444 34.9361 33.1155 34.7533C33.827 34.6754 34.5412 34.6572 35.2561 34.6403Z" fill="white"/>
<path d="M32.0488 5.05371H41.1098C41.5877 5.80214 42.3287 6.50338 42.7832 7.25325C43.8164 8.95954 44.9979 10.6242 46.0582 12.2986C51.2646 20.573 56.0225 29.1211 60.3125 37.9058C61.1285 39.6092 62.0864 41.3001 62.7896 43.0661C62.9581 43.4896 63.148 43.8188 63.2686 44.2686C62.7793 43.6315 62.6068 43.2845 62.0119 42.6676C61.4551 42.0899 61.0267 41.8489 60.4855 41.3729C58.4284 39.5625 56.1509 38.1175 53.7489 36.8114C53.0522 36.4325 51.3087 35.9792 50.8524 35.445C49.6864 34.112 49.1219 32.1755 48.2094 30.6904C47.451 29.4561 46.8729 28.4208 46.2332 27.1272C45.6512 25.9515 44.7166 24.7628 44.0711 23.604C43.7302 22.9924 43.4165 22.3492 43.0574 21.755C40.5288 17.654 37.9314 13.5957 35.2664 9.58182C34.5565 8.52062 33.6968 7.46369 32.9651 6.41018C32.6866 6.00921 32.2534 5.48029 32.0488 5.05371Z" fill="white"/>
<path d="M246.41 13.6482C247.395 13.6393 248.38 13.6394 249.365 13.6486C249.318 22.8863 249.328 32.1242 249.396 41.3619C248.405 41.3618 247.484 41.2842 246.433 41.3015L246.428 38.9476C245.105 40.1029 244.142 41.268 242.279 41.5932C239.794 42.0271 238.265 41.7311 236.194 40.4163C233.897 38.7744 233.09 36.9141 232.484 34.0407C231.463 29.193 233.151 22.5841 238.63 21.2585C241.998 20.4436 243.554 21.8638 246.23 23.6343C246.499 21.2575 246.298 18.7923 246.321 16.4018C246.327 15.7317 246.275 14.255 246.41 13.6482ZM241.63 39.3292C243.083 39.2407 243.825 38.8011 244.81 37.7111C246.037 36.3575 246.479 34.9392 246.468 33.1268C246.45 30.2336 246.902 27.2079 244.392 25.1075C243.122 24.0441 242.144 23.5908 240.47 23.4897C239.109 23.6398 237.851 24.1888 237.017 25.313C234.504 28.6982 234.497 35.7774 237.934 38.6009C238.982 39.4614 240.369 39.3343 241.63 39.3292Z" fill="white"/>
<path d="M154.026 21.1559C156.616 20.7872 158.631 21.5589 160.647 23.2184C164.806 26.6418 164.891 34.9836 161.613 38.9555C160.033 40.8697 157.739 41.6114 155.273 41.7163C149.286 42.0201 145.731 38.264 145.291 32.3931C144.842 26.4038 147.697 21.6129 154.026 21.1559ZM155.874 39.2745C156.641 39.1304 157.358 39.0181 157.988 38.502C160.74 36.2492 161.36 32.5956 160.724 29.2603C159.987 25.3894 157.719 23.5251 153.766 23.7121C152.433 23.8972 150.842 24.5709 150.085 25.7293C148.678 27.8825 148.351 31.2649 148.706 33.7446C149.358 38.2988 151.508 39.5666 155.874 39.2745Z" fill="white"/>
<path d="M197.548 21.1606C203.497 20.931 206.708 24.5898 207.234 30.2852C207.782 36.217 205.023 41.2408 198.77 41.7473C196.3 41.7183 193.87 41.4736 192.016 39.7612C187.848 35.9134 187.646 27.8627 191.463 23.698C193.146 21.8606 195.199 21.3171 197.548 21.1606ZM199.56 39.2221C200.627 39.1453 201.732 38.3324 202.413 37.542C204.223 35.4413 204.442 32.849 204.27 30.1972C203.991 25.896 201.276 23.2146 196.85 23.6069C191.966 24.7994 191.299 30.3834 192.171 34.5999C193.053 38.8602 195.729 39.3759 199.56 39.2221Z" fill="white"/>
<path d="M90.2064 13.5575C91.2343 13.4973 92.2653 13.5125 93.2911 13.603C94.525 17.0655 96.2008 20.5183 97.5942 23.9155C98.29 25.3806 98.6717 27.199 99.3474 28.6381C101.315 32.8284 102.648 37.1706 104.292 41.4641C103.155 41.4782 102.019 41.4004 100.895 41.2315C100.33 39.8723 98.197 33.5727 97.6763 33.1193C96.9229 32.4632 94.3211 32.7474 93.3361 32.762C90.8101 32.8184 88.2834 32.8396 85.7569 32.8256C85.2933 33.7349 84.9434 34.5223 84.6213 35.4832C84.1052 37.0231 83.6095 39.8483 82.6542 41.0973C81.99 41.5478 80.1139 41.3959 79.231 41.392C81.7821 33.3889 85.3896 25.3898 88.3798 17.5249C88.7343 16.5925 89.4912 13.9125 90.2064 13.5575ZM86.8174 30.032C88.6229 30.114 90.7284 30.1025 92.5542 30.0844L96.6768 30.1602C95.8966 27.5321 94.6454 25.0989 93.8054 22.4662C93.4894 21.4757 92.0662 17.3465 91.5534 16.6609L91.3605 16.5723C90.8639 17.9115 90.5718 19.3271 90.0859 20.6755C88.9776 23.7516 87.9495 26.9736 86.8174 30.032Z" fill="white"/>
<path d="M262.332 21.1549C271.649 20.4585 271.28 25.8933 271.227 33.0584C271.208 35.6357 271.166 38.7937 271.396 41.3279C270.558 41.2498 269.437 41.2398 268.575 41.2071C268.486 40.3443 268.369 39.4845 268.222 38.6295C266.104 40.2107 265.056 41.3382 262.285 41.6544C258.56 42.0796 254.427 40.9818 253.984 36.5532C254.04 31.7075 258.182 30.5238 262.167 30.0096C264.054 29.7661 266.176 29.8332 267.83 28.7964C268.193 27.5167 268.067 26.7762 267.829 25.5288C267.108 24.9061 266.119 24.1505 265.184 23.9368C262.097 23.2313 258.658 23.7074 257.642 27.1156C256.861 27.1412 255.76 27.2244 255.047 26.9499C254.334 26.2261 255.827 24.0432 256.387 23.4077C257.869 21.7261 260.205 21.2904 262.332 21.1549ZM258.673 39.0123C262.445 39.9662 266.493 39.4822 267.906 35.0046C268.116 34.339 268.203 32.3587 268.026 31.7146C267.752 31.5062 267.517 31.5793 267.166 31.6273C265.484 31.9386 263.747 32.2855 262.049 32.5794C259.51 33.0187 256.425 33.6936 257.141 37.0734C257.297 37.8092 257.593 38.3449 258.246 38.7605C258.385 38.8496 258.528 38.9336 258.673 39.0123Z" fill="white"/>
<path d="M168.168 13.6117C169.251 13.5684 170.502 13.6079 171.597 13.617C171.639 15.1621 171.368 22.7621 171.665 23.6585L171.865 23.7117C172.317 23.4813 172.476 22.9885 172.791 22.7015C174.239 21.383 175.699 21.2792 177.521 21.1273C180.912 20.8448 183.235 22.8041 184.13 25.9776C184.644 27.7986 184.428 30.4479 184.464 32.4225C184.518 35.394 184.429 38.4213 184.506 41.4204C183.472 41.3791 182.65 41.3654 181.618 41.402C181.486 40.216 181.594 37.9263 181.612 36.6897C181.644 34.2645 181.652 31.8388 181.637 29.4133C181.577 28.4225 181.52 26.9386 181.121 26.0432C179.941 22.8311 173.341 23.1019 172.242 26.1594C170.915 29.8548 171.839 35.4457 171.609 39.4271C171.573 40.0388 171.7 40.6398 171.495 41.2047C171.025 41.5681 168.935 41.4476 168.239 41.4417C168.133 36.1461 168.187 30.9209 168.196 25.6314C168.203 21.6208 168.087 17.6384 168.168 13.6117Z" fill="white"/>
<path d="M220.052 21.1537C228.66 20.4959 227.981 27.9932 227.95 34.0428L227.933 41.4426C226.869 41.4309 225.77 41.3963 224.713 41.4991C224.665 38.3147 224.856 35.0871 224.789 31.9159C224.725 28.9389 225.438 24.5269 221.478 23.8369C219.976 23.5751 218.767 23.5834 217.446 24.4491C217.206 24.6146 216.167 25.349 216.032 25.4988C214.22 27.4964 214.627 33.1234 214.621 35.6533C214.62 37.5591 214.599 39.4646 214.561 41.37C213.73 41.4038 212.651 41.5147 211.879 41.2536C211.434 40.7453 211.7 31.8989 211.648 30.6162C211.523 27.5945 211.655 24.3217 211.462 21.275C212.595 21.1872 213.317 21.2067 214.434 21.3533C214.387 22.6642 214.398 23.4971 214.599 24.789C214.931 24.383 215.271 23.9841 215.621 23.5924C216.91 22.1492 218.032 21.2688 220.052 21.1537Z" fill="white"/>
<path d="M132.479 21.1539C136.173 20.5581 140.501 21.9719 141.19 26.0438C141.347 26.9707 139.091 26.6594 138.601 26.6191C138.39 26.144 138.173 25.6256 137.802 25.2417C135.888 23.2608 132.188 22.7838 130.076 24.705C129.674 25.0701 129.364 25.7513 129.404 26.308C129.568 29.1387 133.572 29.4957 135.741 29.9907C138.834 30.6963 141.75 31.7543 141.962 35.4997C142.06 37.2161 141.7 38.31 140.475 39.5829C138.496 41.6409 136.547 41.7636 133.866 41.7703C131.565 41.7502 129.65 41.1955 127.862 39.6916C126.437 38.4938 126.228 37.367 126.086 35.6407C130.447 34.7219 128.201 36.3526 130.54 38.5741C131.947 39.6965 134.525 39.3543 136.12 39.2587C137.851 39.1548 139.428 37.1231 139.092 35.4897C138.577 32.9869 134.055 32.7989 132.079 32.0605C130.47 31.459 129.034 31.0223 127.679 29.9506C125.775 28.4713 125.782 25.5473 127.322 23.7889C128.757 22.151 130.323 21.3624 132.479 21.1539Z" fill="white"/>
<path d="M113.208 21.1539C116.135 20.7369 120.019 21.6359 121.268 24.6047C121.437 25.0072 121.643 25.8833 121.457 26.2973C121.092 26.6861 119.691 26.7232 119.123 26.7731C117.916 24.1232 116.622 23.6347 113.806 23.4975C112.063 23.4125 109.505 24.9158 109.687 26.6946C109.953 29.2913 115.649 29.6377 117.551 30.3387C118.882 30.8293 119.942 31.076 120.999 32.0663C122.989 33.9755 123.076 37.5506 121.123 39.5272C119.236 41.4377 117.145 41.6681 114.598 41.7105C111.871 41.6904 108.878 41.0544 107.429 38.392C107.164 37.9049 106.5 36.1711 106.656 35.6804C107.216 35.3223 108.409 35.3783 109.099 35.3646C110.335 38.6949 112.033 39.5788 115.464 39.3607C116.44 39.2987 118.208 38.9699 118.797 38.1096C121.243 34.537 117.857 33.318 114.927 32.6778C112.319 32.0279 109.17 31.0559 107.487 29.5066C107.244 28.8913 107.082 28.2471 107.006 27.5901C106.54 23.468 109.554 21.5043 113.208 21.1539Z" fill="white"/>
</g>
<defs>
<clipPath id="clip0_1437_588">
<rect width="280" height="55" fill="white"/>
</clipPath>
</defs>
</svg>
