<svg width="360" height="55" viewBox="0 0 360 55" fill="none" xmlns="http://www.w3.org/2000/svg">
<g clip-path="url(#clip0_1436_549)">
<path d="M172.155 22.415V36.4015C172.155 38.39 171.737 40.1026 170.894 41.5393C170.057 42.9713 168.892 44.0797 167.398 44.8504C165.904 45.6258 164.201 46.0064 162.279 46.0064H158.987C157.065 46.0064 155.357 45.6258 153.868 44.8504C152.374 44.075 151.209 42.9713 150.367 41.5393C149.529 40.0979 149.111 38.39 149.111 36.4015V22.415H154.61V36.6964C154.61 37.5622 154.786 38.3329 155.138 39.0322C155.495 39.7268 156.004 40.2834 156.665 40.6925C157.327 41.1017 158.097 41.3062 158.982 41.3062H162.274C163.159 41.3062 163.93 41.1017 164.591 40.6925C165.257 40.2834 165.761 39.7316 166.113 39.0322C166.47 38.3377 166.646 37.5622 166.646 36.6964V22.415H172.146H172.155Z" fill="white"/>
<path d="M292.596 31.169V27.6058C292.596 24.4232 290.017 21.8447 286.835 21.8447H270.446V45.7025H275.945V36.9396H279.009C279.489 36.9396 279.937 37.1727 280.212 37.5676L285.912 45.7073H292.591L286.454 36.9396H286.416V36.9206H286.835C290.013 36.9206 292.591 34.3421 292.591 31.1643L292.596 31.169ZM275.95 32.2394V26.5497H284.851C285.717 26.5497 286.421 27.2538 286.421 28.1196V30.6695C286.421 31.5353 285.717 32.2394 284.851 32.2394H275.95Z" fill="white"/>
<path d="M221.26 26.4166C220.404 24.9514 219.21 23.8191 217.682 23.0294C217.435 22.901 217.178 22.782 216.917 22.6774C215.584 22.1208 214.091 21.8496 212.44 21.8496H209.077C207.426 21.8496 205.937 22.1208 204.6 22.6774C204.338 22.7868 204.081 22.901 203.834 23.0294C202.307 23.8239 201.122 24.9514 200.257 26.4166C199.4 27.8866 198.967 29.6373 198.967 31.6734V36.15C198.967 38.1861 199.4 39.9321 200.257 41.4068C201.118 42.8721 202.307 44.0043 203.834 44.794C204.081 44.9225 204.338 45.0414 204.6 45.146C205.932 45.7026 207.426 45.9738 209.077 45.9738H212.44C214.091 45.9738 215.58 45.7026 216.917 45.146C217.178 45.0366 217.435 44.9225 217.682 44.794C219.21 43.9995 220.404 42.8721 221.26 41.4068C222.116 39.9368 222.549 38.1861 222.549 36.15V31.6734C222.549 29.6373 222.116 27.8914 221.26 26.4166ZM216.921 36.4545C216.921 37.3393 216.745 38.129 216.379 38.8426C216.022 39.5562 215.494 40.1223 214.823 40.541C214.143 40.9596 213.353 41.169 212.445 41.169H209.081C208.177 41.169 207.383 40.9596 206.703 40.541C206.027 40.1223 205.504 39.5562 205.147 38.8426C204.781 38.129 204.605 37.3393 204.605 36.4545V31.3689C204.605 30.4841 204.781 29.6944 205.147 28.9808C205.504 28.2672 206.032 27.7011 206.703 27.2824C207.383 26.8638 208.173 26.6545 209.081 26.6545H212.445C213.349 26.6545 214.143 26.8638 214.823 27.2824C215.499 27.7011 216.022 28.2672 216.379 28.9808C216.745 29.6944 216.921 30.4841 216.921 31.3689V36.4545Z" fill="white"/>
<path d="M267.153 26.4166C266.297 24.9514 265.103 23.8191 263.576 23.0294C263.329 22.901 263.072 22.782 262.81 22.6774C261.478 22.1208 259.984 21.8496 258.333 21.8496H254.97C253.319 21.8496 251.83 22.1208 250.493 22.6774C250.232 22.7868 249.975 22.901 249.728 23.0294C248.2 23.8239 247.016 24.9514 246.15 26.4166C245.294 27.8866 244.861 29.6373 244.861 31.6734V36.15C244.861 38.1861 245.294 39.9321 246.15 41.4068C247.011 42.8721 248.2 44.0043 249.728 44.794C249.975 44.9225 250.232 45.0414 250.493 45.146C251.826 45.7026 253.319 45.9738 254.97 45.9738H258.333C259.984 45.9738 261.473 45.7026 262.81 45.146C263.072 45.0366 263.329 44.9225 263.576 44.794C265.103 43.9995 266.297 42.8721 267.153 41.4068C268.01 39.9368 268.443 38.1861 268.443 36.15V31.6734C268.443 29.6373 268.01 27.8914 267.153 26.4166ZM262.81 36.4545C262.81 37.3393 262.634 38.129 262.268 38.8426C261.911 39.5562 261.383 40.1223 260.712 40.541C260.032 40.9596 259.242 41.169 258.333 41.169H254.97C254.066 41.169 253.272 40.9596 252.591 40.541C251.916 40.1223 251.393 39.5562 251.036 38.8426C250.669 38.129 250.493 37.3393 250.493 36.4545V31.3689C250.493 30.4841 250.669 29.6944 251.036 28.9808C251.393 28.2672 251.921 27.7011 252.591 27.2824C253.272 26.8638 254.061 26.6545 254.97 26.6545H258.333C259.237 26.6545 260.032 26.8638 260.712 27.2824C261.388 27.7011 261.911 28.2672 262.268 28.9808C262.634 29.6944 262.81 30.4841 262.81 31.3689V36.4545Z" fill="white"/>
<path d="M300.321 31.3686V36.4541C300.321 37.339 300.497 38.1287 300.859 38.8423C301.221 39.5559 301.744 40.1267 302.419 40.5359C303.1 40.9545 303.889 41.1638 304.793 41.1638H315.236V45.9734H304.793C303.143 45.9734 301.653 45.7023 300.317 45.1457C300.055 45.0363 299.798 44.9221 299.551 44.7889C298.024 43.9992 296.834 42.8669 295.978 41.4017C295.122 39.9317 294.684 38.1762 294.684 36.1449V31.6683C294.684 29.6322 295.117 27.8862 295.978 26.4067C296.834 24.9415 298.024 23.8092 299.551 23.0195C299.798 22.8863 300.055 22.7721 300.317 22.6627C301.653 22.1061 303.143 21.835 304.793 21.835H315.236V26.6446H304.793C303.889 26.6446 303.1 26.8539 302.419 27.2725C301.744 27.6912 301.221 28.2573 300.859 28.9661C300.497 29.6797 300.321 30.4742 300.321 31.3543V31.3686Z" fill="white"/>
<path d="M322.966 31.3686V36.4541C322.966 37.339 323.142 38.1287 323.504 38.8423C323.865 39.5559 324.388 40.1267 325.064 40.5359C325.744 40.9545 326.534 41.1638 327.438 41.1638H337.88V45.9734H327.438C325.787 45.9734 324.298 45.7023 322.961 45.1457C322.7 45.0363 322.443 44.9221 322.195 44.7889C320.668 43.9992 319.479 42.8669 318.623 41.4017C317.766 39.9317 317.329 38.1762 317.329 36.1449V31.6683C317.329 29.6322 317.762 27.8862 318.623 26.4067C319.479 24.9415 320.668 23.8092 322.195 23.0195C322.443 22.8863 322.7 22.7721 322.961 22.6627C324.298 22.1061 325.787 21.835 327.438 21.835H337.88V26.6446H327.438C326.534 26.6446 325.744 26.8539 325.064 27.2725C324.388 27.6912 323.865 28.2573 323.504 28.9661C323.142 29.6797 322.966 30.4742 322.966 31.3543V31.3686Z" fill="white"/>
<path d="M322.966 31.3686V36.4541C322.966 37.339 323.142 38.1287 323.504 38.8423C323.865 39.5559 324.388 40.1267 325.064 40.5359C325.744 40.9545 326.534 41.1638 327.438 41.1638H337.88V45.9734H327.438C325.787 45.9734 324.298 45.7023 322.961 45.1457C322.7 45.0363 322.443 44.9221 322.195 44.7889C320.668 43.9992 319.479 42.8669 318.623 41.4017C317.766 39.9317 317.329 38.1762 317.329 36.1449V31.6683C317.329 29.6322 317.762 27.8862 318.623 26.4067C319.479 24.9415 320.668 23.8092 322.195 23.0195C322.443 22.8863 322.7 22.7721 322.961 22.6627C324.298 22.1061 325.787 21.835 327.438 21.835H337.88V26.6446H327.438C326.534 26.6446 325.744 26.8539 325.064 27.2725C324.388 27.6912 323.865 28.2573 323.504 28.9661C323.142 29.6797 322.966 30.4742 322.966 31.3543V31.3686Z" fill="white"/>
<path d="M224.643 45.9786V28.9855C224.643 27.6535 224.971 26.4451 225.627 25.3652C226.284 24.2853 227.169 23.429 228.282 22.7963C229.395 22.1636 230.642 21.8496 232.021 21.8496H242.777V26.6735H232.744C232.102 26.6735 231.555 26.9018 231.108 27.3633C230.661 27.8248 230.437 28.3861 230.437 29.0521V32.5345H241.607V37.3251H230.437V45.9786H224.647H224.643Z" fill="white"/>
<path d="M197.407 22.377V27.0867H188.577V45.9731H183.078V27.0867H174.249V22.377H197.407Z" fill="white"/>
<path d="M130.919 24.7888L116.271 45.7114H122.951L126.809 40.2072H141.518V45.7066H147.018V25.255C147.018 23.5186 145.61 22.1152 143.878 22.1152H136.062C134.011 22.1152 132.094 23.1143 130.919 24.7936V24.7888ZM141.518 35.4975H130.101L135.715 27.4862C136.009 27.0676 136.49 26.8154 136.999 26.8154H141.518V35.4975Z" fill="white"/>
<path d="M335.616 32.5342H322.528V37.3248H335.616V32.5342Z" fill="white"/>
<path d="M71.1723 21.9492C75.0828 21.9492 77.371 26.3497 75.1304 29.5514L73.7174 31.5732L63.613 46.0068H51.872L60.8537 33.1812C61.3295 32.5009 60.8442 31.5732 60.0165 31.5732H47.462C45.8255 31.5732 44.2936 32.3724 43.3564 33.7092L34.7457 46.0068H23L33.1092 31.5732L34.075 30.1936L35.5355 28.1051C38.2376 24.247 42.6524 21.9492 47.3621 21.9492H71.177H71.1723Z" fill="white"/>
<path d="M116.271 21.9492L109.535 31.5732H91.5143C90.1918 31.5732 88.9502 32.2202 88.1937 33.3001L79.2976 46.0068H67.5566L77.6659 31.5732L78.6316 30.1936L80.4156 27.6437C82.9179 24.0757 86.9997 21.9492 91.3573 21.9492H116.276H116.271Z" fill="white"/>
<path d="M125.363 9L118.626 18.624H43.2139L45.6401 15.1559C48.347 11.2978 52.757 9 57.4667 9H125.358H125.363Z" fill="white"/>
</g>
<defs>
<clipPath id="clip0_1436_549">
<rect width="314.885" height="37.0069" fill="white" transform="translate(23 9)"/>
</clipPath>
</defs>
</svg>
