<svg width="257" height="220" viewBox="0 0 257 220" fill="none" xmlns="http://www.w3.org/2000/svg">
<rect width="257" height="220" rx="10" fill="#001A91" fill-opacity="0.2"/>
<path d="M25.264 36V25.04H28.352L30.8 33.6L33.248 25.04H36.352V36H34.56V27.008H34.32L31.728 35.552H29.872L27.28 27.008H27.04V36H25.264ZM38.1378 25.648L41.9138 24.032L42.4578 25.536L38.5538 26.784L38.1378 25.648ZM38.6497 28H40.3938V36H38.6497V28ZM49.0371 24.672V36H47.3091V35.584C46.5305 35.9787 45.8158 36.176 45.1651 36.176C44.1198 36.176 43.3518 35.8613 42.8611 35.232C42.3811 34.6027 42.1411 33.5467 42.1411 32.064C42.1411 30.5813 42.4078 29.504 42.9411 28.832C43.4851 28.16 44.3278 27.824 45.4691 27.824C45.8531 27.824 46.4611 27.8933 47.2931 28.032V24.672H49.0371ZM47.0211 34.336L47.2931 34.224V29.488C46.6531 29.3813 46.0611 29.328 45.5171 29.328C44.4398 29.328 43.9011 30.224 43.9011 32.016C43.9011 32.9973 44.0238 33.68 44.2691 34.064C44.5251 34.4373 44.9251 34.624 45.4691 34.624C46.0131 34.624 46.5305 34.528 47.0211 34.336ZM51.1497 36V28H52.8938V36H51.1497ZM51.1497 26.64V24.8H52.8938V26.64H51.1497ZM60.9291 30.464V34.112C60.9398 34.3467 60.9985 34.5227 61.1051 34.64C61.2225 34.7467 61.3985 34.816 61.6331 34.848L61.5851 36.176C60.6678 36.176 59.9585 35.9787 59.4571 35.584C58.6038 35.9787 57.7451 36.176 56.8811 36.176C55.2918 36.176 54.4971 35.328 54.4971 33.632C54.4971 32.8213 54.7105 32.2347 55.1371 31.872C55.5745 31.5093 56.2411 31.2907 57.1371 31.216L59.2011 31.04V30.464C59.2011 30.0373 59.1051 29.7387 58.9131 29.568C58.7318 29.3973 58.4598 29.312 58.0971 29.312C57.4145 29.312 56.5611 29.3547 55.5371 29.44L55.0251 29.472L54.9611 28.24C56.1238 27.9627 57.1905 27.824 58.1611 27.824C59.1425 27.824 59.8465 28.0373 60.2731 28.464C60.7105 28.88 60.9291 29.5467 60.9291 30.464ZM57.3451 32.448C56.6091 32.512 56.2411 32.912 56.2411 33.648C56.2411 34.384 56.5665 34.752 57.2171 34.752C57.7505 34.752 58.3158 34.6667 58.9131 34.496L59.2011 34.4V32.272L57.3451 32.448ZM70.8581 32.592H68.6181V36H66.8421V25.04H70.8581C73.3435 25.04 74.5861 26.2667 74.5861 28.72C74.5861 29.9787 74.2715 30.9387 73.6421 31.6C73.0235 32.2613 72.0955 32.592 70.8581 32.592ZM68.6181 31.056H70.8421C72.1221 31.056 72.7621 30.2773 72.7621 28.72C72.7621 27.9733 72.6075 27.4293 72.2981 27.088C71.9888 26.7467 71.5035 26.576 70.8421 26.576H68.6181V31.056ZM81.9291 30.464V34.112C81.9398 34.3467 81.9985 34.5227 82.1051 34.64C82.2225 34.7467 82.3985 34.816 82.6331 34.848L82.5851 36.176C81.6678 36.176 80.9585 35.9787 80.4571 35.584C79.6038 35.9787 78.7451 36.176 77.8811 36.176C76.2918 36.176 75.4971 35.328 75.4971 33.632C75.4971 32.8213 75.7105 32.2347 76.1371 31.872C76.5745 31.5093 77.2411 31.2907 78.1371 31.216L80.2011 31.04V30.464C80.2011 30.0373 80.1051 29.7387 79.9131 29.568C79.7318 29.3973 79.4598 29.312 79.0971 29.312C78.4145 29.312 77.5611 29.3547 76.5371 29.44L76.0251 29.472L75.9611 28.24C77.1238 27.9627 78.1905 27.824 79.1611 27.824C80.1425 27.824 80.8465 28.0373 81.2731 28.464C81.7105 28.88 81.9291 29.5467 81.9291 30.464ZM78.3451 32.448C77.6091 32.512 77.2411 32.912 77.2411 33.648C77.2411 34.384 77.5665 34.752 78.2171 34.752C78.7505 34.752 79.3158 34.6667 79.9131 34.496L80.2011 34.4V32.272L78.3451 32.448ZM91.1105 37.088C91.1105 38.8373 89.8465 39.712 87.3185 39.712C86.1025 39.712 85.2012 39.5467 84.6145 39.216C84.0278 38.8853 83.7345 38.2827 83.7345 37.408C83.7345 37.0133 83.8305 36.672 84.0225 36.384C84.2145 36.1067 84.5238 35.8027 84.9505 35.472C84.5985 35.2373 84.4225 34.848 84.4225 34.304C84.4225 34.0907 84.5665 33.744 84.8545 33.264L84.9985 33.024C84.2305 32.5653 83.8465 31.7653 83.8465 30.624C83.8465 29.664 84.1345 28.96 84.7105 28.512C85.2865 28.064 86.0652 27.84 87.0465 27.84C87.5158 27.84 87.9798 27.8933 88.4385 28L88.6785 28.048L91.1585 27.984V29.392L89.8305 29.312C90.1185 29.6853 90.2625 30.1227 90.2625 30.624C90.2625 31.6693 89.9958 32.3947 89.4625 32.8C88.9398 33.1947 88.1185 33.392 86.9985 33.392C86.7212 33.392 86.4865 33.3707 86.2945 33.328C86.1452 33.6907 86.0705 33.9733 86.0705 34.176C86.0705 34.368 86.1665 34.5013 86.3585 34.576C86.5612 34.6507 87.0412 34.6933 87.7985 34.704C89.0678 34.7147 89.9372 34.8853 90.4065 35.216C90.8758 35.5467 91.1105 36.1707 91.1105 37.088ZM85.4465 37.248C85.4465 37.6213 85.5958 37.888 85.8945 38.048C86.1932 38.208 86.7052 38.288 87.4305 38.288C88.7212 38.288 89.3665 37.92 89.3665 37.184C89.3665 36.768 89.2492 36.5013 89.0145 36.384C88.7905 36.2773 88.3372 36.2187 87.6545 36.208L86.0865 36.112C85.8518 36.304 85.6865 36.48 85.5905 36.64C85.4945 36.8107 85.4465 37.0133 85.4465 37.248ZM85.5745 30.624C85.5745 31.1147 85.6918 31.4773 85.9265 31.712C86.1612 31.936 86.5398 32.048 87.0625 32.048C87.5852 32.048 87.9585 31.936 88.1825 31.712C88.4172 31.4773 88.5345 31.1147 88.5345 30.624C88.5345 30.1333 88.4172 29.776 88.1825 29.552C87.9478 29.3173 87.5692 29.2 87.0465 29.2C86.0652 29.2 85.5745 29.6747 85.5745 30.624ZM98.4448 30.464V34.112C98.4554 34.3467 98.5141 34.5227 98.6208 34.64C98.7381 34.7467 98.9141 34.816 99.1488 34.848L99.1008 36.176C98.1834 36.176 97.4741 35.9787 96.9728 35.584C96.1194 35.9787 95.2608 36.176 94.3968 36.176C92.8074 36.176 92.0128 35.328 92.0128 33.632C92.0128 32.8213 92.2261 32.2347 92.6528 31.872C93.0901 31.5093 93.7568 31.2907 94.6528 31.216L96.7168 31.04V30.464C96.7168 30.0373 96.6208 29.7387 96.4288 29.568C96.2474 29.3973 95.9754 29.312 95.6128 29.312C94.9301 29.312 94.0768 29.3547 93.0528 29.44L92.5408 29.472L92.4768 28.24C93.6394 27.9627 94.7061 27.824 95.6768 27.824C96.6581 27.824 97.3621 28.0373 97.7888 28.464C98.2261 28.88 98.4448 29.5467 98.4448 30.464ZM94.8608 32.448C94.1248 32.512 93.7568 32.912 93.7568 33.648C93.7568 34.384 94.0821 34.752 94.7328 34.752C95.2661 34.752 95.8314 34.6667 96.4288 34.496L96.7168 34.4V32.272L94.8608 32.448Z" fill="white"/>
<rect x="24" y="194" width="24" height="6" rx="3" fill="#001A91"/>
<rect x="70" y="194" width="24" height="6" rx="3" fill="#001A91"/>
<rect x="116" y="194" width="24" height="6" rx="3" fill="#001A91"/>
<rect x="162" y="194" width="24" height="6" rx="3" fill="#001A91"/>
<rect x="208" y="194" width="24" height="6" rx="3" fill="#001A91"/>
<line opacity="0.2" x1="24.5" y1="149.5" x2="232.5" y2="149.5" stroke="#E5EAFF" stroke-linecap="round"/>
<line opacity="0.2" x1="24.5" y1="121.5" x2="232.5" y2="121.5" stroke="#E5EAFF" stroke-linecap="round"/>
<line opacity="0.2" x1="24.5" y1="93.5" x2="232.5" y2="93.5" stroke="#E5EAFF" stroke-linecap="round"/>
<line opacity="0.2" x1="24.5" y1="65.5" x2="232.5" y2="65.5" stroke="#E5EAFF" stroke-linecap="round"/>
<line opacity="0.2" x1="24.5" y1="177.5" x2="232.5" y2="177.5" stroke="#E5EAFF" stroke-linecap="round"/>
<rect x="25" y="99" width="16" height="78" fill="#1440FF"/>
<rect x="153" y="80" width="16" height="97" fill="#1440FF"/>
<rect x="89" y="122" width="16" height="55" fill="#1440FF"/>
<rect x="217" y="104" width="16" height="73" fill="#1440FF"/>
<rect x="121" y="110" width="16" height="67" fill="#001A91"/>
<rect x="57" y="124" width="16" height="53" fill="#001A91"/>
<rect x="185" y="91" width="16" height="86" fill="#001A91"/>
<path d="M25.5 95.4999C37.6308 64.0811 49.1416 124 64.5 124C77.8552 124 82.4804 100.549 94.5 100.549C102.513 100.549 108.02 110.589 117 110.5C125.98 110.41 122 93.9999 137.5 109C152.377 123.397 148.314 63.0215 161.002 63.0215C171.018 63.0215 167.011 88.267 182.37 88.267C194.389 88.267 196.393 69.8446 207.077 69.8446C219.764 69.8446 211.083 100.549 230.448 100.549" stroke="#FFA814" stroke-width="2" stroke-linecap="round" stroke-linejoin="round"/>
</svg>
