<svg width="165" height="168" viewBox="0 0 165 168" fill="none" xmlns="http://www.w3.org/2000/svg">
<rect width="164.189" height="167.526" rx="10.3264" fill="#001A91" fill-opacity="0.2"/>
<path d="M50.1833 33.1404H47.9951V36.4697H46.2601V25.7628H50.1833C52.6113 25.7628 53.8253 26.9611 53.8253 29.3578C53.8253 30.5874 53.5179 31.5252 52.9031 32.1713C52.2987 32.8174 51.3921 33.1404 50.1833 33.1404ZM47.9951 31.6399H50.1677C51.4182 31.6399 52.0434 30.8792 52.0434 29.3578C52.0434 28.6284 51.8923 28.0969 51.5901 27.7635C51.2879 27.43 50.8138 27.2633 50.1677 27.2633H47.9951V31.6399ZM60.9988 31.0615V34.6253C61.0092 34.8546 61.0665 35.0265 61.1707 35.1411C61.2853 35.2453 61.4572 35.3131 61.6865 35.3443L61.6396 36.6417C60.7435 36.6417 60.0505 36.4489 59.5607 36.0633C58.7271 36.4489 57.8883 36.6417 57.0442 36.6417C55.4916 36.6417 54.7152 35.8132 54.7152 34.1564C54.7152 33.3644 54.9237 32.7913 55.3405 32.437C55.7677 32.0827 56.419 31.8691 57.2943 31.7962L59.3106 31.6242V31.0615C59.3106 30.6447 59.2169 30.3529 59.0293 30.1862C58.8521 30.0195 58.5864 29.9361 58.2321 29.9361C57.5652 29.9361 56.7316 29.9778 55.7312 30.0612L55.2311 30.0924L55.1685 28.8889C56.3044 28.618 57.3464 28.4825 58.2947 28.4825C59.2533 28.4825 59.9411 28.6909 60.3579 29.1077C60.7851 29.5141 60.9988 30.1654 60.9988 31.0615ZM57.4975 32.9997C56.7785 33.0623 56.419 33.453 56.419 34.172C56.419 34.891 56.7368 35.2505 57.3725 35.2505C57.8935 35.2505 58.4458 35.1672 59.0293 35.0004L59.3106 34.9067V32.8278L57.4975 32.9997ZM69.9682 37.5326C69.9682 39.2416 68.7333 40.096 66.2637 40.096C65.0758 40.096 64.1953 39.9345 63.6221 39.6115C63.049 39.2884 62.7624 38.6997 62.7624 37.8452C62.7624 37.4597 62.8562 37.1262 63.0438 36.8449C63.2314 36.5739 63.5336 36.2769 63.9504 35.9539C63.6065 35.7247 63.4346 35.3443 63.4346 34.8129C63.4346 34.6045 63.5752 34.2658 63.8566 33.7969L63.9973 33.5624C63.247 33.1144 62.8719 32.3328 62.8719 31.2178C62.8719 30.28 63.1532 29.5923 63.7159 29.1546C64.2786 28.7169 65.0393 28.4981 65.998 28.4981C66.4565 28.4981 66.9098 28.5502 67.3578 28.6544L67.5923 28.7013L70.015 28.6388V30.0143L68.7177 29.9361C68.9991 30.3008 69.1397 30.7281 69.1397 31.2178C69.1397 32.239 68.8792 32.9476 68.3582 33.3436C67.8476 33.7292 67.0452 33.9219 65.9511 33.9219C65.6802 33.9219 65.4509 33.9011 65.2633 33.8594C65.1175 34.2137 65.0445 34.4898 65.0445 34.6878C65.0445 34.8754 65.1383 35.0057 65.3259 35.0786C65.5239 35.1515 65.9928 35.1932 66.7326 35.2036C67.9726 35.2141 68.8219 35.3808 69.2804 35.7038C69.7389 36.0269 69.9682 36.6365 69.9682 37.5326ZM64.4349 37.6889C64.4349 38.0536 64.5808 38.3141 64.8726 38.4704C65.1643 38.6268 65.6645 38.7049 66.3731 38.7049C67.634 38.7049 68.2644 38.3454 68.2644 37.6264C68.2644 37.22 68.1498 36.9595 67.9205 36.8449C67.7017 36.7407 67.2589 36.6833 66.5919 36.6729L65.0601 36.5791C64.8309 36.7667 64.6694 36.9386 64.5756 37.095C64.4818 37.2617 64.4349 37.4597 64.4349 37.6889ZM64.56 31.2178C64.56 31.6972 64.6746 32.0515 64.9038 32.2807C65.1331 32.4996 65.503 32.609 66.0136 32.609C66.5242 32.609 66.8889 32.4996 67.1078 32.2807C67.337 32.0515 67.4516 31.6972 67.4516 31.2178C67.4516 30.7385 67.337 30.3894 67.1078 30.1706C66.8785 29.9413 66.5086 29.8267 65.998 29.8267C65.0393 29.8267 64.56 30.2904 64.56 31.2178ZM76.9143 35.063L77.3519 35.0161L77.3832 36.2822C76.1952 36.5218 75.1428 36.6417 74.2258 36.6417C73.0691 36.6417 72.2355 36.3238 71.7249 35.6882C71.2247 35.0526 70.9746 34.0366 70.9746 32.6402C70.9746 29.8684 72.1052 28.4825 74.3665 28.4825C76.5547 28.4825 77.6489 29.6756 77.6489 32.0619L77.5395 33.2811H72.694C72.7044 33.9271 72.8451 34.4013 73.116 34.7035C73.3869 35.0057 73.8923 35.1568 74.6322 35.1568C75.372 35.1568 76.1327 35.1255 76.9143 35.063ZM75.9764 31.9681C75.9764 31.197 75.8514 30.6604 75.6013 30.3582C75.3616 30.0455 74.95 29.8892 74.3665 29.8892C73.7829 29.8892 73.3557 30.0508 73.0848 30.3738C72.8242 30.6968 72.6888 31.2283 72.6784 31.9681H75.9764ZM82.6321 27.107C81.3087 27.107 80.647 27.5707 80.647 28.4981C80.647 28.9775 80.8033 29.3213 81.116 29.5297C81.4286 29.7277 82.1163 29.9778 83.1792 30.28C84.2525 30.5718 85.008 30.9261 85.4456 31.3429C85.8833 31.7493 86.1021 32.3953 86.1021 33.2811C86.1021 34.4065 85.7791 35.2505 85.133 35.8132C84.4974 36.3655 83.6273 36.6417 82.5227 36.6417C81.637 36.6417 80.6575 36.5375 79.5842 36.3291L79.0215 36.2196L79.1934 34.8285C80.6001 35.0161 81.6734 35.1099 82.4133 35.1099C83.7054 35.1099 84.3515 34.5367 84.3515 33.3905C84.3515 32.9424 84.2056 32.6142 83.9138 32.4058C83.6221 32.1869 82.9656 31.9525 81.9444 31.7024C80.9232 31.4419 80.1625 31.0876 79.6623 30.6395C79.1621 30.1914 78.912 29.4828 78.912 28.5137C78.912 27.5447 79.2246 26.8152 79.8499 26.3255C80.4855 25.8253 81.3608 25.5752 82.4758 25.5752C83.2782 25.5752 84.2264 25.669 85.3206 25.8565L85.8677 25.9503L85.727 27.3571C84.2681 27.1904 83.2365 27.107 82.6321 27.107ZM87.7741 39.8303V28.6544H89.4622V29.139C90.1812 28.7013 90.8533 28.4825 91.4786 28.4825C92.5102 28.4825 93.2657 28.8003 93.745 29.436C94.2243 30.0612 94.464 31.1188 94.464 32.609C94.464 34.0887 94.1879 35.1307 93.6356 35.7351C93.0937 36.3395 92.2028 36.6417 90.9627 36.6417C90.5355 36.6417 90.0405 36.5948 89.4778 36.501V39.8303H87.7741ZM91.1816 29.9987C90.6918 29.9987 90.2021 30.1081 89.7123 30.3269L89.4778 30.4363V35.0473C89.8947 35.1307 90.3532 35.1724 90.8533 35.1724C91.5619 35.1724 92.0517 34.9692 92.3226 34.5628C92.5935 34.1564 92.729 33.4634 92.729 32.4839C92.729 30.8271 92.2132 29.9987 91.1816 29.9987ZM101.734 35.063L102.172 35.0161L102.203 36.2822C101.015 36.5218 99.9625 36.6417 99.0455 36.6417C97.8888 36.6417 97.0552 36.3238 96.5446 35.6882C96.0444 35.0526 95.7943 34.0366 95.7943 32.6402C95.7943 29.8684 96.9249 28.4825 99.1862 28.4825C101.374 28.4825 102.469 29.6756 102.469 32.0619L102.359 33.2811H97.5137C97.5241 33.9271 97.6648 34.4013 97.9357 34.7035C98.2066 35.0057 98.712 35.1568 99.4519 35.1568C100.192 35.1568 100.952 35.1255 101.734 35.063ZM100.796 31.9681C100.796 31.197 100.671 30.6604 100.421 30.3582C100.181 30.0455 99.7697 29.8892 99.1862 29.8892C98.6026 29.8892 98.1754 30.0508 97.9044 30.3738C97.6439 30.6968 97.5085 31.2283 97.498 31.9681H100.796ZM109.671 35.063L110.109 35.0161L110.14 36.2822C108.952 36.5218 107.9 36.6417 106.983 36.6417C105.826 36.6417 104.993 36.3238 104.482 35.6882C103.982 35.0526 103.732 34.0366 103.732 32.6402C103.732 29.8684 104.862 28.4825 107.124 28.4825C109.312 28.4825 110.406 29.6756 110.406 32.0619L110.297 33.2811H105.451C105.462 33.9271 105.602 34.4013 105.873 34.7035C106.144 35.0057 106.649 35.1568 107.389 35.1568C108.129 35.1568 108.89 35.1255 109.671 35.063ZM108.734 31.9681C108.734 31.197 108.608 30.6604 108.358 30.3582C108.119 30.0455 107.707 29.8892 107.124 29.8892C106.54 29.8892 106.113 30.0508 105.842 30.3738C105.581 30.6968 105.446 31.2283 105.435 31.9681H108.734ZM118.422 25.4033V36.4697H116.733V36.0633C115.973 36.4489 115.275 36.6417 114.639 36.6417C113.618 36.6417 112.867 36.3343 112.388 35.7195C111.919 35.1047 111.685 34.073 111.685 32.6246C111.685 31.1762 111.945 30.1237 112.466 29.4672C112.998 28.8107 113.821 28.4825 114.936 28.4825C115.311 28.4825 115.905 28.5502 116.718 28.6857V25.4033H118.422ZM116.452 34.8441L116.718 34.7347V30.1081C116.093 30.0039 115.514 29.9518 114.983 29.9518C113.93 29.9518 113.404 30.8271 113.404 32.5777C113.404 33.5364 113.524 34.2033 113.764 34.5784C114.014 34.9431 114.405 35.1255 114.936 35.1255C115.467 35.1255 115.973 35.0317 116.452 34.8441Z" fill="white"/>
<path d="M22.0592 123.854C22.0592 115.939 23.618 108.103 26.6466 100.791C29.6752 93.4794 34.1143 86.8359 39.7104 81.2397C45.3066 75.6436 51.9501 71.2045 59.2618 68.1759C66.5735 65.1473 74.4101 63.5885 82.3242 63.5885C90.2383 63.5885 98.075 65.1473 105.387 68.1759C112.698 71.2045 119.342 75.6436 124.938 81.2397C130.534 86.8359 134.973 93.4794 138.002 100.791C141.03 108.103 142.589 115.939 142.589 123.854" stroke="#E9EBFC" stroke-width="7.89973" stroke-linecap="round"/>
<path d="M22.0592 123.854C22.0592 110.587 26.4367 97.6915 34.5128 87.1665C42.5889 76.6416 53.9121 69.0756 66.7265 65.642C79.5408 62.2084 93.1301 63.0991 105.387 68.1759C117.643 73.2528 127.882 82.232 134.515 93.721" stroke="#0CCE6B" stroke-width="7.89973" stroke-linecap="round"/>
<path d="M64.8812 115.156C67.8567 115.156 69.364 113.277 69.4031 109.519L68.6984 109.754C67.2107 110.263 66.0166 110.517 65.1161 110.517C63.002 110.517 61.387 110.018 60.2712 109.02C59.1554 108.002 58.5976 106.485 58.5976 104.468C58.5976 102.452 59.2142 100.866 60.4474 99.7115C61.7002 98.5566 63.3935 97.9791 65.5272 97.9791C67.9741 97.9791 69.7946 98.8502 70.9887 100.592C72.1828 102.335 72.7799 104.909 72.7799 108.315C72.7799 111.721 72.1045 114.187 70.7538 115.714C69.4227 117.241 67.4652 118.005 64.8812 118.005C63.4131 118.005 61.8275 117.828 60.1244 117.476L59.2729 117.3L59.5665 114.745C61.4653 115.019 63.2369 115.156 64.8812 115.156ZM65.3804 107.64C66.4962 107.64 67.6413 107.424 68.8159 106.994L69.4325 106.788C69.3933 102.814 68.0916 100.827 65.5272 100.827C64.4114 100.827 63.5403 101.15 62.9139 101.796C62.2875 102.442 61.9743 103.323 61.9743 104.439C61.9743 106.573 63.1097 107.64 65.3804 107.64ZM77.0836 99.3298C78.3364 98.4293 80.0395 97.9791 82.1927 97.9791C84.346 97.9791 86.0589 98.4293 87.3312 99.3298C88.6232 100.211 89.2692 101.483 89.2692 103.147C89.2692 104.322 89.0832 105.212 88.7113 105.819C88.359 106.406 87.6836 107.013 86.6853 107.64C87.6836 108.286 88.4079 108.951 88.8581 109.636C89.3279 110.302 89.5628 111.232 89.5628 112.426C89.5628 114.383 88.8875 115.802 87.5368 116.683C86.1861 117.564 84.4047 118.005 82.1927 118.005C77.3381 118.005 74.9107 116.253 74.9107 112.749C74.9107 111.437 75.1358 110.429 75.5861 109.724C76.0363 109.02 76.7508 108.325 77.7296 107.64C76.8095 107.033 76.1635 106.406 75.7916 105.76C75.4197 105.095 75.2337 104.214 75.2337 103.118C75.2337 101.473 75.8503 100.211 77.0836 99.3298ZM78.4049 112.044C78.4049 114.06 79.6773 115.068 82.2221 115.068C84.7865 115.068 86.0686 114.041 86.0686 111.985C86.0686 110.635 85.2465 109.705 83.6022 109.196H80.7833C79.1977 109.705 78.4049 110.654 78.4049 112.044ZM85.775 103.617C85.775 101.816 84.6005 100.915 82.2515 100.915C79.9024 100.915 78.7279 101.816 78.7279 103.617C78.7279 104.791 79.413 105.721 80.7833 106.406H83.6022C85.0507 105.721 85.775 104.791 85.775 103.617ZM94.5125 117.858L101.031 97.3919L102.852 98.0085L96.3331 118.445L94.5125 117.858ZM91.0477 102.149C91.0477 99.369 92.1733 97.9791 94.4245 97.9791C96.6952 97.9791 97.8306 99.369 97.8306 102.149C97.8306 103.558 97.5369 104.615 96.9497 105.32C96.3624 106.025 95.5207 106.377 94.4245 106.377C93.3478 106.377 92.5159 106.025 91.9286 105.32C91.3414 104.615 91.0477 103.558 91.0477 102.149ZM93.661 100.475C93.524 100.808 93.4555 101.366 93.4555 102.149C93.4555 102.932 93.524 103.499 93.661 103.852C93.8176 104.204 94.0819 104.38 94.4538 104.38C94.8258 104.38 95.0802 104.204 95.2173 103.852C95.3739 103.499 95.4522 102.932 95.4522 102.149C95.4522 101.366 95.3739 100.808 95.2173 100.475C95.0802 100.123 94.8258 99.9464 94.4538 99.9464C94.0819 99.9464 93.8176 100.123 93.661 100.475ZM99.5336 113.776C99.5336 110.997 100.659 109.607 102.91 109.607C105.181 109.607 106.316 110.997 106.316 113.776C106.316 115.186 106.023 116.243 105.436 116.948C104.848 117.652 104.007 118.005 102.91 118.005C101.834 118.005 101.002 117.652 100.414 116.948C99.8272 116.243 99.5336 115.186 99.5336 113.776ZM102.91 111.604C102.538 111.604 102.274 111.78 102.118 112.132C101.981 112.465 101.912 113.023 101.912 113.806C101.912 114.569 101.981 115.137 102.118 115.509C102.274 115.861 102.538 116.037 102.91 116.037C103.282 116.037 103.537 115.861 103.674 115.509C103.83 115.156 103.909 114.589 103.909 113.806C103.909 113.003 103.84 112.435 103.703 112.103C103.566 111.77 103.302 111.604 102.91 111.604Z" fill="white"/>
</svg>
