<svg width="260" height="204" viewBox="0 0 260 204" fill="none" xmlns="http://www.w3.org/2000/svg">
<rect width="259.042" height="203.836" rx="14.0732" fill="#001A91" fill-opacity="0.3"/>
<line opacity="0.3" x1="129.926" y1="123.543" x2="129.926" y2="170.999" stroke="#E6EAFF" stroke-width="1.97733"/>
<path d="M131.933 37.1685C126.011 35.9097 119.842 36.5581 114.31 39.0208C108.779 41.4835 104.169 45.634 101.142 50.8776C98.1146 56.1212 96.8249 62.1886 97.4578 68.2102C98.0907 74.2319 100.614 79.8985 104.665 84.3981C108.717 88.8977 114.089 91.9992 120.011 93.258C125.933 94.5169 132.102 93.8685 137.634 91.4058C143.165 88.9431 147.775 84.7925 150.802 79.5489C153.83 74.3053 155.119 68.2379 154.486 62.2163L125.972 65.2133L131.933 37.1685Z" fill="#1440FF"/>
<path d="M136.797 31.3866C143.105 32.8359 148.792 36.245 153.043 41.1253C157.295 46.0055 159.892 52.1064 160.463 58.5535L129.934 61.257L136.797 31.3866Z" fill="#0CCE6B"/>
<path d="M46.1317 127.747C44.2493 127.47 42.616 127.331 41.2319 127.331C38.6113 127.331 37.301 128.753 37.301 131.595L37.8823 131.429C39.1004 131.078 40.0692 130.903 40.789 130.903C42.8744 130.903 44.4431 131.382 45.495 132.342C46.547 133.302 47.0729 134.797 47.0729 136.827C47.0729 138.838 46.4824 140.361 45.3013 141.394C44.1201 142.428 42.4038 142.944 40.1523 142.944C37.9192 142.944 36.2306 142.132 35.0864 140.508C33.9422 138.866 33.37 136.458 33.37 133.283C33.37 130.109 34.0252 127.774 35.3355 126.28C36.6458 124.766 38.5282 124.01 40.9828 124.01C42.4223 124.01 43.9633 124.213 45.6058 124.619L46.4639 124.812L46.1317 127.747ZM40.4568 134.224C39.5894 134.224 38.6851 134.381 37.7439 134.695L37.2733 134.833C37.2733 138.026 38.3068 139.623 40.3738 139.623C41.2596 139.623 41.9424 139.383 42.4223 138.903C42.9021 138.405 43.142 137.712 43.142 136.827C43.142 135.092 42.2469 134.224 40.4568 134.224ZM61.5391 142.612H49.6909V139.373L53.5942 135.415C54.9783 133.994 55.9379 132.905 56.4731 132.148C57.0268 131.392 57.3036 130.589 57.3036 129.74C57.3036 128.872 57.0729 128.263 56.6116 127.913C56.1686 127.562 55.5319 127.387 54.7015 127.387C53.465 127.387 52.1177 127.498 50.6598 127.719L49.9954 127.802L49.8016 124.84C51.6102 124.286 53.4834 124.01 55.4212 124.01C59.2968 124.01 61.2346 125.754 61.2346 129.242C61.2346 130.607 60.9393 131.788 60.3487 132.785C59.7581 133.782 58.6878 134.99 57.1375 136.411L53.954 139.29H61.5391V142.612ZM66.8422 142.834L73.3476 123.262L75.3685 123.982L68.8631 143.498L66.8422 142.834ZM63.7695 128.051C63.7695 125.357 64.8768 124.01 67.0914 124.01C69.306 124.01 70.4133 125.357 70.4133 128.051C70.4133 130.727 69.306 132.065 67.0914 132.065C64.8768 132.065 63.7695 130.727 63.7695 128.051ZM66.5931 126.639C66.5193 126.898 66.4824 127.359 66.4824 128.024C66.4824 128.688 66.5193 129.159 66.5931 129.435C66.6854 129.712 66.8515 129.851 67.0914 129.851C67.3313 129.851 67.4882 129.712 67.562 129.435C67.6543 129.159 67.7004 128.688 67.7004 128.024C67.7004 127.359 67.6543 126.898 67.562 126.639C67.4882 126.363 67.3313 126.224 67.0914 126.224C66.8515 126.224 66.6854 126.363 66.5931 126.639ZM71.8528 138.931C71.8528 136.236 72.9601 134.889 75.1747 134.889C77.3893 134.889 78.4966 136.236 78.4966 138.931C78.4966 141.607 77.3893 142.944 75.1747 142.944C72.9601 142.944 71.8528 141.607 71.8528 138.931ZM74.6764 137.519C74.6026 137.777 74.5657 138.238 74.5657 138.903C74.5657 139.567 74.6026 140.038 74.6764 140.315C74.7687 140.591 74.9348 140.73 75.1747 140.73C75.4146 140.73 75.5715 140.591 75.6453 140.315C75.7376 140.038 75.7837 139.567 75.7837 138.903C75.7837 138.238 75.7376 137.777 75.6453 137.519C75.5715 137.242 75.4146 137.103 75.1747 137.103C74.9348 137.103 74.7687 137.242 74.6764 137.519Z" fill="white"/>
<path d="M40.9974 169.228H33.4637V155.544H34.9863V167.863H40.9974V169.228ZM49.2949 168.002L49.8683 167.942L49.9079 169.109C48.4051 169.32 47.1198 169.425 46.0521 169.425C44.6284 169.425 43.62 169.017 43.0268 168.199C42.4336 167.369 42.137 166.084 42.137 164.344C42.137 160.877 43.5145 159.143 46.2696 159.143C47.601 159.143 48.5962 159.519 49.2553 160.27C49.9145 161.008 50.244 162.175 50.244 163.77L50.1649 164.897H43.6397C43.6397 165.991 43.8375 166.802 44.2329 167.329C44.6284 167.857 45.3139 168.12 46.2894 168.12C47.278 168.12 48.2799 168.081 49.2949 168.002ZM48.761 163.711C48.761 162.498 48.5633 161.641 48.1678 161.14C47.7855 160.639 47.1528 160.389 46.2696 160.389C45.3996 160.389 44.7404 160.653 44.2922 161.18C43.8572 161.707 43.6331 162.551 43.62 163.711H48.761ZM59.5352 162.327V167.389C59.5747 167.876 59.957 168.166 60.682 168.259L60.6227 169.425C59.5813 169.425 58.7969 169.162 58.2697 168.634C57.0833 169.162 55.8969 169.425 54.7105 169.425C53.8009 169.425 53.1088 169.168 52.6343 168.654C52.1597 168.14 51.9224 167.402 51.9224 166.44C51.9224 165.477 52.1663 164.772 52.654 164.324C53.1418 163.862 53.9064 163.579 54.9477 163.474L58.0522 163.177V162.327C58.0522 161.654 57.9072 161.173 57.6171 160.883C57.3271 160.593 56.9317 160.448 56.4307 160.448C55.3762 160.448 54.282 160.514 53.1484 160.646L52.5354 160.705L52.4761 159.578C53.9261 159.288 55.2114 159.143 56.3319 159.143C57.4524 159.143 58.2631 159.4 58.764 159.914C59.2781 160.428 59.5352 161.233 59.5352 162.327ZM53.445 166.36C53.445 167.573 53.9459 168.18 54.9477 168.18C55.8441 168.18 56.7273 168.028 57.5974 167.725L58.0522 167.567V164.304L55.1257 164.581C54.5325 164.634 54.1041 164.805 53.8404 165.095C53.5768 165.385 53.445 165.807 53.445 166.36ZM70.0541 155.03V169.228H68.5909V168.555C67.5758 169.135 66.574 169.425 65.5853 169.425C65.058 169.425 64.5967 169.359 64.2012 169.228C63.8057 169.096 63.4366 168.858 63.0939 168.516C62.382 167.804 62.0261 166.492 62.0261 164.581C62.0261 162.656 62.3425 161.272 62.9752 160.428C63.6212 159.572 64.6823 159.143 66.1587 159.143C66.9233 159.143 67.734 159.229 68.5909 159.4V155.03H70.0541ZM64.2407 167.448C64.4517 167.698 64.6757 167.87 64.913 167.962C65.1503 168.054 65.4535 168.1 65.8226 168.1C66.2049 168.1 66.6267 168.041 67.0881 167.923C67.5627 167.791 67.9318 167.665 68.1954 167.547L68.5909 167.369V160.666C67.7472 160.508 66.9629 160.428 66.2378 160.428C65.236 160.428 64.5373 160.751 64.1419 161.397C63.7464 162.03 63.5487 163.019 63.5487 164.363C63.5487 165.892 63.7794 166.921 64.2407 167.448ZM76.3227 169.228L80.0796 155.544H83.4015L87.1585 169.228H85.6557L84.667 165.708H78.8141L77.8255 169.228H76.3227ZM81.2265 156.849L79.1503 164.344H84.3309L82.2547 156.849H81.2265Z" fill="#E6EAFF"/>
<path d="M174.506 125.006C176.204 124.342 178.096 124.01 180.181 124.01C182.285 124.01 183.817 124.416 184.776 125.228C185.736 126.021 186.216 127.304 186.216 129.076C186.216 130.847 185.505 132.204 184.084 133.145C184.97 133.625 185.598 134.123 185.967 134.64C186.354 135.156 186.548 135.978 186.548 137.103C186.548 139.078 186.05 140.545 185.053 141.505C184.075 142.465 182.497 142.944 180.32 142.944C178.714 142.944 177.025 142.705 175.254 142.225L174.368 142.003L174.562 139.097C176.628 139.447 178.363 139.623 179.766 139.623C181.667 139.623 182.617 138.811 182.617 137.187C182.617 136.504 182.368 135.959 181.87 135.553C181.39 135.147 180.753 134.944 179.96 134.944H176.278V131.788H179.96C180.569 131.788 181.104 131.53 181.565 131.013C182.045 130.497 182.285 129.924 182.285 129.297C182.285 127.987 181.371 127.331 179.544 127.331C178.271 127.331 176.915 127.461 175.475 127.719L174.755 127.83L174.506 125.006ZM191.159 125.338C192.359 124.453 193.964 124.01 195.976 124.01C197.988 124.01 199.612 124.453 200.848 125.338C202.085 126.224 202.703 127.451 202.703 129.02C202.703 130.091 202.574 130.893 202.315 131.429C202.057 131.964 201.522 132.554 200.71 133.2C201.522 133.883 202.103 134.529 202.454 135.138C202.804 135.747 202.98 136.587 202.98 137.657C202.98 139.466 202.334 140.804 201.042 141.671C199.75 142.52 198.061 142.944 195.976 142.944C191.362 142.944 189.055 141.284 189.055 137.962C189.055 136.78 189.231 135.867 189.581 135.221C189.95 134.557 190.541 133.883 191.353 133.2C190.578 132.573 190.052 131.964 189.775 131.373C189.498 130.764 189.36 129.971 189.36 128.992C189.36 127.424 189.96 126.206 191.159 125.338ZM193.152 137.076C193.152 138.7 194.103 139.512 196.004 139.512C197.923 139.512 198.883 138.7 198.883 137.076C198.883 136.116 198.338 135.424 197.249 135H194.813C193.706 135.424 193.152 136.116 193.152 137.076ZM196.031 127.442C195.201 127.442 194.564 127.627 194.121 127.996C193.678 128.365 193.457 128.928 193.457 129.685C193.457 130.441 193.909 131.133 194.813 131.761H197.249C198.154 131.133 198.606 130.413 198.606 129.601C198.606 128.162 197.748 127.442 196.031 127.442ZM207.231 142.834L213.736 123.262L215.757 123.982L209.252 143.498L207.231 142.834ZM204.158 128.051C204.158 125.357 205.265 124.01 207.48 124.01C209.695 124.01 210.802 125.357 210.802 128.051C210.802 130.727 209.695 132.065 207.48 132.065C205.265 132.065 204.158 130.727 204.158 128.051ZM206.982 126.639C206.908 126.898 206.871 127.359 206.871 128.024C206.871 128.688 206.908 129.159 206.982 129.435C207.074 129.712 207.24 129.851 207.48 129.851C207.72 129.851 207.877 129.712 207.951 129.435C208.043 129.159 208.089 128.688 208.089 128.024C208.089 127.359 208.043 126.898 207.951 126.639C207.877 126.363 207.72 126.224 207.48 126.224C207.24 126.224 207.074 126.363 206.982 126.639ZM212.241 138.931C212.241 136.236 213.349 134.889 215.563 134.889C217.778 134.889 218.885 136.236 218.885 138.931C218.885 141.607 217.778 142.944 215.563 142.944C213.349 142.944 212.241 141.607 212.241 138.931ZM215.065 137.519C214.991 137.777 214.954 138.238 214.954 138.903C214.954 139.567 214.991 140.038 215.065 140.315C215.157 140.591 215.323 140.73 215.563 140.73C215.803 140.73 215.96 140.591 216.034 140.315C216.126 140.038 216.172 139.567 216.172 138.903C216.172 138.238 216.126 137.777 216.034 137.519C215.96 137.242 215.803 137.103 215.563 137.103C215.323 137.103 215.157 137.242 215.065 137.519Z" fill="white"/>
<path d="M179.927 169.228H172.394V155.544H173.916V167.863H179.927V169.228ZM188.225 168.002L188.798 167.942L188.838 169.109C187.335 169.32 186.05 169.425 184.982 169.425C183.558 169.425 182.55 169.017 181.957 168.199C181.364 167.369 181.067 166.084 181.067 164.344C181.067 160.877 182.445 159.143 185.2 159.143C186.531 159.143 187.526 159.519 188.185 160.27C188.845 161.008 189.174 162.175 189.174 163.77L189.095 164.897H182.57C182.57 165.991 182.768 166.802 183.163 167.329C183.558 167.857 184.244 168.12 185.219 168.12C186.208 168.12 187.21 168.081 188.225 168.002ZM187.691 163.711C187.691 162.498 187.493 161.641 187.098 161.14C186.716 160.639 186.083 160.389 185.2 160.389C184.33 160.389 183.671 160.653 183.222 161.18C182.787 161.707 182.563 162.551 182.55 163.711H187.691ZM198.465 162.327V167.389C198.505 167.876 198.887 168.166 199.612 168.259L199.553 169.425C198.511 169.425 197.727 169.162 197.2 168.634C196.013 169.162 194.827 169.425 193.641 169.425C192.731 169.425 192.039 169.168 191.564 168.654C191.09 168.14 190.852 167.402 190.852 166.44C190.852 165.477 191.096 164.772 191.584 164.324C192.072 163.862 192.836 163.579 193.878 163.474L196.982 163.177V162.327C196.982 161.654 196.837 161.173 196.547 160.883C196.257 160.593 195.862 160.448 195.361 160.448C194.306 160.448 193.212 160.514 192.078 160.646L191.465 160.705L191.406 159.578C192.856 159.288 194.141 159.143 195.262 159.143C196.382 159.143 197.193 159.4 197.694 159.914C198.208 160.428 198.465 161.233 198.465 162.327ZM192.375 166.36C192.375 167.573 192.876 168.18 193.878 168.18C194.774 168.18 195.657 168.028 196.527 167.725L196.982 167.567V164.304L194.056 164.581C193.463 164.634 193.034 164.805 192.77 165.095C192.507 165.385 192.375 165.807 192.375 166.36ZM208.984 155.03V169.228H207.521V168.555C206.506 169.135 205.504 169.425 204.515 169.425C203.988 169.425 203.527 169.359 203.131 169.228C202.736 169.096 202.367 168.858 202.024 168.516C201.312 167.804 200.956 166.492 200.956 164.581C200.956 162.656 201.273 161.272 201.905 160.428C202.551 159.572 203.612 159.143 205.089 159.143C205.853 159.143 206.664 159.229 207.521 159.4V155.03H208.984ZM203.171 167.448C203.382 167.698 203.606 167.87 203.843 167.962C204.08 168.054 204.384 168.1 204.753 168.1C205.135 168.1 205.557 168.041 206.018 167.923C206.493 167.791 206.862 167.665 207.125 167.547L207.521 167.369V160.666C206.677 160.508 205.893 160.428 205.168 160.428C204.166 160.428 203.467 160.751 203.072 161.397C202.676 162.03 202.479 163.019 202.479 164.363C202.479 165.892 202.709 166.921 203.171 167.448ZM216.459 155.544H221.422C222.78 155.544 223.795 155.828 224.467 156.395C225.153 156.948 225.495 157.825 225.495 159.025C225.495 159.881 225.344 160.554 225.041 161.041C224.751 161.516 224.316 161.892 223.735 162.168C225.186 162.669 225.911 163.744 225.911 165.392C225.911 166.762 225.548 167.745 224.823 168.338C224.098 168.931 223.05 169.228 221.679 169.228H216.459V155.544ZM221.521 162.94H217.981V167.883H221.62C222.516 167.883 223.195 167.698 223.656 167.329C224.131 166.947 224.368 166.281 224.368 165.332C224.368 164.831 224.269 164.409 224.072 164.067C223.887 163.724 223.637 163.48 223.32 163.335C222.74 163.071 222.14 162.94 221.521 162.94ZM221.363 156.889H217.981V161.615H221.501C222.345 161.615 222.958 161.417 223.34 161.022C223.735 160.613 223.933 160.007 223.933 159.202C223.933 158.385 223.722 157.799 223.3 157.443C222.892 157.074 222.246 156.889 221.363 156.889Z" fill="#E6EAFF"/>
</svg>
