<svg width="216" height="179" viewBox="0 0 216 179" fill="none" xmlns="http://www.w3.org/2000/svg">
<rect width="215.552" height="178.408" rx="13.733" fill="#001A91" fill-opacity="0.3"/>
<path d="M86.7094 22.8307H89.3853L86.4695 35.3799H81.7635L78.8476 22.8307H81.5236L83.7012 33.1653H84.5317L86.7094 22.8307ZM92.3056 31.8181C92.3179 32.3841 92.4656 32.7962 92.7485 33.0546C93.0438 33.3006 93.4621 33.4237 94.0035 33.4237C95.1477 33.4237 96.1688 33.3868 97.0669 33.313L97.5837 33.2576L97.6206 35.0846C96.2057 35.4291 94.9262 35.6013 93.782 35.6013C92.3917 35.6013 91.3829 35.2322 90.7554 34.4941C90.128 33.7559 89.8142 32.5563 89.8142 30.8954C89.8142 27.5858 91.1737 25.931 93.8927 25.931C96.5748 25.931 97.9159 27.3213 97.9159 30.1018L97.7313 31.8181H92.3056ZM95.4798 29.9357C95.4798 29.1975 95.363 28.687 95.1292 28.404C94.8954 28.1087 94.4833 27.9611 93.8927 27.9611C93.3145 27.9611 92.9023 28.1149 92.6563 28.4224C92.4225 28.7177 92.2995 29.2221 92.2872 29.9357H95.4798ZM102.156 35.3799H99.6832V26.1525H102.138V26.6692C102.974 26.1771 103.743 25.931 104.445 25.931C105.675 25.931 106.524 26.294 106.991 27.0199C107.459 27.7458 107.693 28.8654 107.693 30.3786V35.3799H105.22V30.4525C105.22 29.6651 105.127 29.0868 104.943 28.7177C104.758 28.3363 104.389 28.1456 103.836 28.1456C103.331 28.1456 102.845 28.2317 102.378 28.404L102.156 28.4778V35.3799ZM117.727 22.4616V35.3799H115.273V34.9923C114.411 35.3983 113.667 35.6013 113.04 35.6013C111.698 35.6013 110.763 35.2138 110.234 34.4387C109.705 33.6636 109.441 32.4394 109.441 30.7662C109.441 29.0807 109.755 27.8565 110.382 27.0937C111.022 26.3186 111.981 25.931 113.261 25.931C113.655 25.931 114.202 25.9926 114.903 26.1156L115.254 26.1894V22.4616H117.727ZM114.996 33.1653L115.254 33.1099V28.2563C114.577 28.1333 113.975 28.0718 113.446 28.0718C112.449 28.0718 111.951 28.9576 111.951 30.7293C111.951 31.6889 112.061 32.3718 112.283 32.7778C112.504 33.1838 112.867 33.3868 113.372 33.3868C113.888 33.3868 114.43 33.313 114.996 33.1653ZM127.08 29.0314V32.87C127.105 33.1653 127.154 33.3745 127.228 33.4975C127.302 33.6082 127.456 33.6882 127.689 33.7374L127.616 35.6013C126.988 35.6013 126.484 35.5583 126.102 35.4722C125.733 35.386 125.358 35.2138 124.977 34.9554C124.091 35.386 123.186 35.6013 122.264 35.6013C120.357 35.6013 119.403 34.5925 119.403 32.5748C119.403 31.5905 119.668 30.8954 120.197 30.4894C120.726 30.0711 121.538 29.825 122.633 29.7512L124.607 29.6035V29.0314C124.607 28.65 124.521 28.3917 124.349 28.2563C124.177 28.1087 123.9 28.0349 123.519 28.0349L120.049 28.1825L119.975 26.4662C121.292 26.1094 122.541 25.931 123.722 25.931C124.915 25.931 125.77 26.1771 126.287 26.6692C126.816 27.1614 127.08 27.9488 127.08 29.0314ZM122.928 31.4675C122.239 31.529 121.895 31.8981 121.895 32.5748C121.895 33.2514 122.196 33.5898 122.799 33.5898C123.266 33.5898 123.777 33.516 124.331 33.3683L124.607 33.2945V31.3198L122.928 31.4675ZM136.063 28.4593C134.538 28.2625 133.467 28.1641 132.852 28.1641C132.249 28.1641 131.855 28.2194 131.671 28.3302C131.499 28.4409 131.413 28.6193 131.413 28.8654C131.413 29.0991 131.529 29.2652 131.763 29.3636C132.009 29.4498 132.624 29.5851 133.609 29.7696C134.605 29.9419 135.313 30.231 135.731 30.637C136.149 31.043 136.358 31.7012 136.358 32.6117C136.358 34.6048 135.122 35.6013 132.649 35.6013C131.837 35.6013 130.853 35.4906 129.696 35.2692L129.106 35.1584L129.18 33.0915C130.705 33.2883 131.763 33.3868 132.354 33.3868C132.957 33.3868 133.363 33.3314 133.572 33.2207C133.793 33.0976 133.904 32.9192 133.904 32.6855C133.904 32.4517 133.787 32.2795 133.553 32.1688C133.332 32.058 132.741 31.9227 131.782 31.7628C130.834 31.6028 130.127 31.3321 129.659 30.9507C129.192 30.5693 128.958 29.8927 128.958 28.9207C128.958 27.9365 129.29 27.1983 129.955 26.7061C130.619 26.2017 131.474 25.9495 132.52 25.9495C133.246 25.9495 134.236 26.0664 135.491 26.3001L136.1 26.4109L136.063 28.4593Z" fill="white"/>
<line x1="21.3477" y1="65.5027" x2="194.216" y2="65.5027" stroke="white" stroke-opacity="0.2" stroke-width="0.711391" stroke-dasharray="1.42 1.42"/>
<line x1="21.3477" y1="74.7507" x2="194.216" y2="74.7507" stroke="white" stroke-opacity="0.2" stroke-width="0.711391" stroke-dasharray="1.42 1.42"/>
<line x1="21.3477" y1="83.9988" x2="194.216" y2="83.9988" stroke="white" stroke-opacity="0.2" stroke-width="0.711391" stroke-dasharray="1.42 1.42"/>
<line x1="21.3477" y1="93.2468" x2="194.216" y2="93.2468" stroke="white" stroke-opacity="0.2" stroke-width="0.711391" stroke-dasharray="1.42 1.42"/>
<line x1="21.3477" y1="102.495" x2="194.216" y2="102.495" stroke="white" stroke-opacity="0.2" stroke-width="0.711391" stroke-dasharray="1.42 1.42"/>
<line x1="21.3477" y1="111.743" x2="194.216" y2="111.743" stroke="white" stroke-opacity="0.2" stroke-width="0.711391" stroke-dasharray="1.42 1.42"/>
<line x1="21.3477" y1="120.991" x2="194.216" y2="120.991" stroke="white" stroke-opacity="0.2" stroke-width="0.711391" stroke-dasharray="1.42 1.42"/>
<line x1="21.3477" y1="130.239" x2="194.216" y2="130.239" stroke="white" stroke-opacity="0.2" stroke-width="0.711391" stroke-dasharray="1.42 1.42"/>
<line x1="21.3477" y1="139.487" x2="194.216" y2="139.487" stroke="white" stroke-opacity="0.2" stroke-width="0.711391" stroke-dasharray="1.42 1.42"/>
<line x1="21.3477" y1="148.735" x2="194.216" y2="148.735" stroke="white" stroke-opacity="0.2" stroke-width="0.711391" stroke-dasharray="1.42 1.42"/>
<path d="M21.3438 109.25C21.3438 105.714 24.2103 102.848 27.7463 102.848C31.2823 102.848 34.1488 105.714 34.1488 109.25V162.605H21.3438V109.25Z" fill="url(#paint0_linear_784_10144)"/>
<path d="M53.3555 94.3107C53.3555 90.7747 56.222 87.9082 59.758 87.9082C63.294 87.9082 66.1605 90.7747 66.1605 94.3107V162.604H53.3555V94.3107Z" fill="url(#paint1_linear_784_10144)"/>
<path d="M85.3691 104.982C85.3691 101.446 88.2356 98.5791 91.7717 98.5791C95.3077 98.5791 98.1742 101.446 98.1742 104.982V162.604H85.3691V104.982Z" fill="url(#paint2_linear_784_10144)"/>
<path d="M117.381 77.9494C117.381 74.4134 120.247 71.5469 123.783 71.5469C127.319 71.5469 130.186 74.4134 130.186 77.9494V162.605H117.381V77.9494Z" fill="url(#paint3_linear_784_10144)"/>
<path d="M149.395 77.9494C149.395 74.4134 152.261 71.5469 155.797 71.5469C159.333 71.5469 162.2 74.4134 162.2 77.9494V162.605H149.395V77.9494Z" fill="url(#paint4_linear_784_10144)"/>
<path d="M181.406 63.01C181.406 59.4739 184.273 56.6074 187.809 56.6074C191.345 56.6074 194.211 59.4739 194.211 63.0099V162.605H181.406V63.01Z" fill="url(#paint5_linear_784_10144)"/>
<defs>
<linearGradient id="paint0_linear_784_10144" x1="27.7463" y1="102.848" x2="27.7463" y2="162.605" gradientUnits="userSpaceOnUse">
<stop stop-color="#0CCE6B"/>
<stop offset="1" stop-color="#0CCE6B" stop-opacity="0"/>
</linearGradient>
<linearGradient id="paint1_linear_784_10144" x1="59.758" y1="87.9082" x2="59.758" y2="162.604" gradientUnits="userSpaceOnUse">
<stop stop-color="#0CCE6B"/>
<stop offset="1" stop-color="#0CCE6B" stop-opacity="0"/>
</linearGradient>
<linearGradient id="paint2_linear_784_10144" x1="91.7717" y1="98.5791" x2="91.7717" y2="162.604" gradientUnits="userSpaceOnUse">
<stop stop-color="#0CCE6B"/>
<stop offset="1" stop-color="#0CCE6B" stop-opacity="0"/>
</linearGradient>
<linearGradient id="paint3_linear_784_10144" x1="123.783" y1="71.5469" x2="123.783" y2="162.605" gradientUnits="userSpaceOnUse">
<stop stop-color="#0CCE6B"/>
<stop offset="1" stop-color="#0CCE6B" stop-opacity="0"/>
</linearGradient>
<linearGradient id="paint4_linear_784_10144" x1="155.797" y1="71.5469" x2="155.797" y2="162.605" gradientUnits="userSpaceOnUse">
<stop stop-color="#0CCE6B"/>
<stop offset="1" stop-color="#0CCE6B" stop-opacity="0"/>
</linearGradient>
<linearGradient id="paint5_linear_784_10144" x1="187.809" y1="56.6074" x2="187.809" y2="162.605" gradientUnits="userSpaceOnUse">
<stop stop-color="#0CCE6B"/>
<stop offset="1" stop-color="#0CCE6B" stop-opacity="0"/>
</linearGradient>
</defs>
</svg>
